<mxfile host="app.diagrams.net" modified="2021-05-28T09:22:32.468Z" agent="5.0 (Windows NT 10.0; WOW64) AppleWebKit/537.36 (KHTML, like Gecko) Chrome/84.0.4147.89 Safari/537.36 SLBrowser/7.0.0.4071 SLBChan/3" etag="RFCCOXYvxB3spMsN53G1" version="14.7.2" type="github">
  <diagram id="V-LYUt6-tkYFiRCC0l9f" name="Page-1">
    <mxGraphModel dx="1178" dy="643" grid="0" gridSize="10" guides="1" tooltips="1" connect="1" arrows="1" fold="1" page="1" pageScale="1" pageWidth="827" pageHeight="1169" math="0" shadow="0">
      <root>
        <mxCell id="0" />
        <mxCell id="1" parent="0" />
        <mxCell id="E3-DCWuAJKOkuyqkyLfo-2" value="MODE" style="rounded=0;whiteSpace=wrap;html=1;" parent="1" vertex="1">
          <mxGeometry x="94" y="170" width="60" height="20" as="geometry" />
        </mxCell>
        <mxCell id="E3-DCWuAJKOkuyqkyLfo-3" value="PPN" style="rounded=0;whiteSpace=wrap;html=1;" parent="1" vertex="1">
          <mxGeometry x="214" y="170" width="116" height="20" as="geometry" />
        </mxCell>
        <mxCell id="E3-DCWuAJKOkuyqkyLfo-4" value="Satp" style="text;html=1;strokeColor=none;fillColor=none;align=center;verticalAlign=middle;whiteSpace=wrap;rounded=0;" parent="1" vertex="1">
          <mxGeometry x="44" y="180" width="40" height="20" as="geometry" />
        </mxCell>
        <mxCell id="E3-DCWuAJKOkuyqkyLfo-5" value="ASID" style="rounded=0;whiteSpace=wrap;html=1;" parent="1" vertex="1">
          <mxGeometry x="154" y="170" width="60" height="20" as="geometry" />
        </mxCell>
        <mxCell id="E3-DCWuAJKOkuyqkyLfo-6" value="4" style="text;html=1;strokeColor=none;fillColor=none;align=center;verticalAlign=middle;whiteSpace=wrap;rounded=0;" parent="1" vertex="1">
          <mxGeometry x="104" y="150" width="40" height="20" as="geometry" />
        </mxCell>
        <mxCell id="E3-DCWuAJKOkuyqkyLfo-7" value="16" style="text;html=1;strokeColor=none;fillColor=none;align=center;verticalAlign=middle;whiteSpace=wrap;rounded=0;" parent="1" vertex="1">
          <mxGeometry x="164" y="150" width="40" height="20" as="geometry" />
        </mxCell>
        <mxCell id="E3-DCWuAJKOkuyqkyLfo-8" value="44" style="text;html=1;strokeColor=none;fillColor=none;align=center;verticalAlign=middle;whiteSpace=wrap;rounded=0;" parent="1" vertex="1">
          <mxGeometry x="250" y="150" width="40" height="20" as="geometry" />
        </mxCell>
        <mxCell id="E3-DCWuAJKOkuyqkyLfo-9" value="VPN[2]" style="rounded=0;whiteSpace=wrap;html=1;" parent="1" vertex="1">
          <mxGeometry x="480" y="170" width="60" height="20" as="geometry" />
        </mxCell>
        <mxCell id="E3-DCWuAJKOkuyqkyLfo-10" value="VPN[0]" style="rounded=0;whiteSpace=wrap;html=1;" parent="1" vertex="1">
          <mxGeometry x="600" y="170" width="60" height="20" as="geometry" />
        </mxCell>
        <mxCell id="E3-DCWuAJKOkuyqkyLfo-11" value="virtual address" style="text;html=1;strokeColor=none;fillColor=none;align=center;verticalAlign=middle;whiteSpace=wrap;rounded=0;" parent="1" vertex="1">
          <mxGeometry x="560" y="130" width="100" height="20" as="geometry" />
        </mxCell>
        <mxCell id="E3-DCWuAJKOkuyqkyLfo-12" value="VPN[1]" style="rounded=0;whiteSpace=wrap;html=1;" parent="1" vertex="1">
          <mxGeometry x="540" y="170" width="60" height="20" as="geometry" />
        </mxCell>
        <mxCell id="E3-DCWuAJKOkuyqkyLfo-13" value="9" style="text;html=1;strokeColor=none;fillColor=none;align=center;verticalAlign=middle;whiteSpace=wrap;rounded=0;" parent="1" vertex="1">
          <mxGeometry x="490" y="150" width="40" height="20" as="geometry" />
        </mxCell>
        <mxCell id="E3-DCWuAJKOkuyqkyLfo-14" value="9" style="text;html=1;strokeColor=none;fillColor=none;align=center;verticalAlign=middle;whiteSpace=wrap;rounded=0;" parent="1" vertex="1">
          <mxGeometry x="540" y="150" width="40" height="20" as="geometry" />
        </mxCell>
        <mxCell id="E3-DCWuAJKOkuyqkyLfo-15" value="9" style="text;html=1;strokeColor=none;fillColor=none;align=center;verticalAlign=middle;whiteSpace=wrap;rounded=0;" parent="1" vertex="1">
          <mxGeometry x="610" y="150" width="40" height="20" as="geometry" />
        </mxCell>
        <mxCell id="E3-DCWuAJKOkuyqkyLfo-16" value="page offset" style="rounded=0;whiteSpace=wrap;html=1;" parent="1" vertex="1">
          <mxGeometry x="660" y="170" width="100" height="20" as="geometry" />
        </mxCell>
        <mxCell id="E3-DCWuAJKOkuyqkyLfo-17" value="12" style="text;html=1;strokeColor=none;fillColor=none;align=center;verticalAlign=middle;whiteSpace=wrap;rounded=0;" parent="1" vertex="1">
          <mxGeometry x="685" y="150" width="40" height="20" as="geometry" />
        </mxCell>
        <mxCell id="E3-DCWuAJKOkuyqkyLfo-170" value="RSW" style="rounded=0;whiteSpace=wrap;html=1;" parent="1" vertex="1">
          <mxGeometry x="530" y="305" width="40" height="20" as="geometry" />
        </mxCell>
        <mxCell id="E3-DCWuAJKOkuyqkyLfo-171" value="PPN[0]" style="rounded=0;whiteSpace=wrap;html=1;" parent="1" vertex="1">
          <mxGeometry x="470" y="305" width="60" height="20" as="geometry" />
        </mxCell>
        <mxCell id="E3-DCWuAJKOkuyqkyLfo-172" value="9" style="text;html=1;strokeColor=none;fillColor=none;align=center;verticalAlign=middle;whiteSpace=wrap;rounded=0;" parent="1" vertex="1">
          <mxGeometry x="480" y="285" width="40" height="20" as="geometry" />
        </mxCell>
        <mxCell id="E3-DCWuAJKOkuyqkyLfo-173" value="D" style="rounded=0;whiteSpace=wrap;html=1;" parent="1" vertex="1">
          <mxGeometry x="570" y="305" width="30" height="20" as="geometry" />
        </mxCell>
        <mxCell id="E3-DCWuAJKOkuyqkyLfo-174" value="1" style="text;html=1;strokeColor=none;fillColor=none;align=center;verticalAlign=middle;whiteSpace=wrap;rounded=0;" parent="1" vertex="1">
          <mxGeometry x="715" y="285" width="40" height="20" as="geometry" />
        </mxCell>
        <mxCell id="E3-DCWuAJKOkuyqkyLfo-175" value="A" style="rounded=0;whiteSpace=wrap;html=1;" parent="1" vertex="1">
          <mxGeometry x="600" y="305" width="30" height="20" as="geometry" />
        </mxCell>
        <mxCell id="E3-DCWuAJKOkuyqkyLfo-176" value="G" style="rounded=0;whiteSpace=wrap;html=1;" parent="1" vertex="1">
          <mxGeometry x="630" y="305" width="30" height="20" as="geometry" />
        </mxCell>
        <mxCell id="E3-DCWuAJKOkuyqkyLfo-177" value="U" style="rounded=0;whiteSpace=wrap;html=1;" parent="1" vertex="1">
          <mxGeometry x="660" y="305" width="30" height="20" as="geometry" />
        </mxCell>
        <mxCell id="E3-DCWuAJKOkuyqkyLfo-178" value="X" style="rounded=0;whiteSpace=wrap;html=1;" parent="1" vertex="1">
          <mxGeometry x="690" y="305" width="30" height="20" as="geometry" />
        </mxCell>
        <mxCell id="E3-DCWuAJKOkuyqkyLfo-179" value="R" style="rounded=0;whiteSpace=wrap;html=1;" parent="1" vertex="1">
          <mxGeometry x="720" y="305" width="30" height="20" as="geometry" />
        </mxCell>
        <mxCell id="E3-DCWuAJKOkuyqkyLfo-180" value="V" style="rounded=0;whiteSpace=wrap;html=1;" parent="1" vertex="1">
          <mxGeometry x="750" y="305" width="30" height="20" as="geometry" />
        </mxCell>
        <mxCell id="E3-DCWuAJKOkuyqkyLfo-181" value="1" style="text;html=1;strokeColor=none;fillColor=none;align=center;verticalAlign=middle;whiteSpace=wrap;rounded=0;" parent="1" vertex="1">
          <mxGeometry x="745" y="285" width="40" height="20" as="geometry" />
        </mxCell>
        <mxCell id="E3-DCWuAJKOkuyqkyLfo-182" value="1" style="text;html=1;strokeColor=none;fillColor=none;align=center;verticalAlign=middle;whiteSpace=wrap;rounded=0;" parent="1" vertex="1">
          <mxGeometry x="685" y="285" width="40" height="20" as="geometry" />
        </mxCell>
        <mxCell id="E3-DCWuAJKOkuyqkyLfo-183" value="1" style="text;html=1;strokeColor=none;fillColor=none;align=center;verticalAlign=middle;whiteSpace=wrap;rounded=0;" parent="1" vertex="1">
          <mxGeometry x="655" y="285" width="40" height="20" as="geometry" />
        </mxCell>
        <mxCell id="E3-DCWuAJKOkuyqkyLfo-184" value="1" style="text;html=1;strokeColor=none;fillColor=none;align=center;verticalAlign=middle;whiteSpace=wrap;rounded=0;" parent="1" vertex="1">
          <mxGeometry x="625" y="285" width="40" height="20" as="geometry" />
        </mxCell>
        <mxCell id="E3-DCWuAJKOkuyqkyLfo-185" value="1" style="text;html=1;strokeColor=none;fillColor=none;align=center;verticalAlign=middle;whiteSpace=wrap;rounded=0;" parent="1" vertex="1">
          <mxGeometry x="595" y="285" width="40" height="20" as="geometry" />
        </mxCell>
        <mxCell id="E3-DCWuAJKOkuyqkyLfo-186" value="1" style="text;html=1;strokeColor=none;fillColor=none;align=center;verticalAlign=middle;whiteSpace=wrap;rounded=0;" parent="1" vertex="1">
          <mxGeometry x="565" y="285" width="40" height="20" as="geometry" />
        </mxCell>
        <mxCell id="E3-DCWuAJKOkuyqkyLfo-187" value="2" style="text;html=1;strokeColor=none;fillColor=none;align=center;verticalAlign=middle;whiteSpace=wrap;rounded=0;" parent="1" vertex="1">
          <mxGeometry x="530" y="285" width="40" height="20" as="geometry" />
        </mxCell>
        <mxCell id="E3-DCWuAJKOkuyqkyLfo-188" value="PPN[1]" style="rounded=0;whiteSpace=wrap;html=1;" parent="1" vertex="1">
          <mxGeometry x="410" y="305" width="60" height="20" as="geometry" />
        </mxCell>
        <mxCell id="E3-DCWuAJKOkuyqkyLfo-189" value="9" style="text;html=1;strokeColor=none;fillColor=none;align=center;verticalAlign=middle;whiteSpace=wrap;rounded=0;" parent="1" vertex="1">
          <mxGeometry x="420" y="285" width="40" height="20" as="geometry" />
        </mxCell>
        <mxCell id="E3-DCWuAJKOkuyqkyLfo-190" value="PPN[3]" style="rounded=0;whiteSpace=wrap;html=1;" parent="1" vertex="1">
          <mxGeometry x="290" y="305" width="60" height="20" as="geometry" />
        </mxCell>
        <mxCell id="E3-DCWuAJKOkuyqkyLfo-191" value="17" style="text;html=1;strokeColor=none;fillColor=none;align=center;verticalAlign=middle;whiteSpace=wrap;rounded=0;" parent="1" vertex="1">
          <mxGeometry x="300" y="285" width="40" height="20" as="geometry" />
        </mxCell>
        <mxCell id="E3-DCWuAJKOkuyqkyLfo-192" value="Reserved" style="rounded=0;whiteSpace=wrap;html=1;" parent="1" vertex="1">
          <mxGeometry x="230" y="305" width="60" height="20" as="geometry" />
        </mxCell>
        <mxCell id="E3-DCWuAJKOkuyqkyLfo-193" value="8" style="text;html=1;strokeColor=none;fillColor=none;align=center;verticalAlign=middle;whiteSpace=wrap;rounded=0;" parent="1" vertex="1">
          <mxGeometry x="240" y="285" width="40" height="20" as="geometry" />
        </mxCell>
        <mxCell id="E3-DCWuAJKOkuyqkyLfo-194" value="1" style="text;html=1;strokeColor=none;fillColor=none;align=center;verticalAlign=middle;whiteSpace=wrap;rounded=0;" parent="1" vertex="1">
          <mxGeometry x="164" y="285" width="40" height="20" as="geometry" />
        </mxCell>
        <mxCell id="E3-DCWuAJKOkuyqkyLfo-195" value="C" style="rounded=0;whiteSpace=wrap;html=1;" parent="1" vertex="1">
          <mxGeometry x="169" y="305" width="30" height="20" as="geometry" />
        </mxCell>
        <mxCell id="E3-DCWuAJKOkuyqkyLfo-196" value="N" style="rounded=0;whiteSpace=wrap;html=1;" parent="1" vertex="1">
          <mxGeometry x="199" y="305" width="31" height="20" as="geometry" />
        </mxCell>
        <mxCell id="E3-DCWuAJKOkuyqkyLfo-197" value="1" style="text;html=1;strokeColor=none;fillColor=none;align=center;verticalAlign=middle;whiteSpace=wrap;rounded=0;" parent="1" vertex="1">
          <mxGeometry x="194" y="285" width="40" height="20" as="geometry" />
        </mxCell>
        <mxCell id="E3-DCWuAJKOkuyqkyLfo-260" style="edgeStyle=orthogonalEdgeStyle;rounded=0;orthogonalLoop=1;jettySize=auto;html=1;exitX=1;exitY=0.5;exitDx=0;exitDy=0;" parent="1" source="E3-DCWuAJKOkuyqkyLfo-239" target="E3-DCWuAJKOkuyqkyLfo-195" edge="1">
          <mxGeometry relative="1" as="geometry" />
        </mxCell>
        <mxCell id="E3-DCWuAJKOkuyqkyLfo-239" value="" style="ellipse;whiteSpace=wrap;html=1;aspect=fixed;" parent="1" vertex="1">
          <mxGeometry x="84" y="295" width="40" height="40" as="geometry" />
        </mxCell>
        <mxCell id="E3-DCWuAJKOkuyqkyLfo-240" value="" style="endArrow=none;html=1;entryX=1;entryY=0.5;entryDx=0;entryDy=0;exitX=0;exitY=0.5;exitDx=0;exitDy=0;" parent="1" source="E3-DCWuAJKOkuyqkyLfo-239" target="E3-DCWuAJKOkuyqkyLfo-239" edge="1">
          <mxGeometry width="50" height="50" relative="1" as="geometry">
            <mxPoint x="124" y="355" as="sourcePoint" />
            <mxPoint x="100" y="365" as="targetPoint" />
          </mxGeometry>
        </mxCell>
        <mxCell id="E3-DCWuAJKOkuyqkyLfo-241" value="" style="endArrow=none;html=1;exitX=0.5;exitY=1;exitDx=0;exitDy=0;entryX=0.5;entryY=0;entryDx=0;entryDy=0;" parent="1" source="E3-DCWuAJKOkuyqkyLfo-239" target="E3-DCWuAJKOkuyqkyLfo-239" edge="1">
          <mxGeometry width="50" height="50" relative="1" as="geometry">
            <mxPoint x="100" y="425" as="sourcePoint" />
            <mxPoint x="120" y="375" as="targetPoint" />
          </mxGeometry>
        </mxCell>
        <mxCell id="E3-DCWuAJKOkuyqkyLfo-254" value="" style="endArrow=classic;html=1;exitX=0.5;exitY=1;exitDx=0;exitDy=0;entryX=0;entryY=0.5;entryDx=0;entryDy=0;fillColor=#e51400;strokeColor=#B20000;strokeWidth=2;" parent="1" source="J9jAl2TMxWxcubqev3nk-182" target="E3-DCWuAJKOkuyqkyLfo-239" edge="1">
          <mxGeometry width="50" height="50" relative="1" as="geometry">
            <mxPoint x="124" y="120" as="sourcePoint" />
            <mxPoint x="90" y="270" as="targetPoint" />
            <Array as="points">
              <mxPoint x="390" y="220" />
              <mxPoint x="70" y="220" />
              <mxPoint x="70" y="315" />
            </Array>
          </mxGeometry>
        </mxCell>
        <mxCell id="E3-DCWuAJKOkuyqkyLfo-256" value="" style="endArrow=classic;html=1;exitX=0.5;exitY=1;exitDx=0;exitDy=0;entryX=0;entryY=0.5;entryDx=0;entryDy=0;fillColor=#e3c800;strokeColor=#B09500;strokeWidth=2;" parent="1" source="J9jAl2TMxWxcubqev3nk-181" target="J9jAl2TMxWxcubqev3nk-34" edge="1">
          <mxGeometry width="50" height="50" relative="1" as="geometry">
            <mxPoint x="550" y="300" as="sourcePoint" />
            <mxPoint x="84" y="500" as="targetPoint" />
            <Array as="points">
              <mxPoint x="450" y="230" />
              <mxPoint x="60" y="230" />
              <mxPoint x="60" y="390" />
            </Array>
          </mxGeometry>
        </mxCell>
        <mxCell id="E3-DCWuAJKOkuyqkyLfo-259" value="" style="endArrow=classic;html=1;exitX=0.5;exitY=1;exitDx=0;exitDy=0;fillColor=#e51400;strokeColor=#B20000;strokeWidth=2;" parent="1" source="E3-DCWuAJKOkuyqkyLfo-3" edge="1">
          <mxGeometry width="50" height="50" relative="1" as="geometry">
            <mxPoint x="314" y="193" as="sourcePoint" />
            <mxPoint x="104" y="300" as="targetPoint" />
            <Array as="points">
              <mxPoint x="272" y="210" />
              <mxPoint x="104" y="210" />
            </Array>
          </mxGeometry>
        </mxCell>
        <mxCell id="E3-DCWuAJKOkuyqkyLfo-263" value="satp.ppn * PAGESIZE+ VPN[4]*PTESIZE" style="text;html=1;strokeColor=none;fillColor=none;align=center;verticalAlign=middle;whiteSpace=wrap;rounded=0;" parent="1" vertex="1">
          <mxGeometry x="83" y="325" width="286" height="20" as="geometry" />
        </mxCell>
        <mxCell id="E3-DCWuAJKOkuyqkyLfo-264" value="pte1.ppn * PAGESIZE+ VPN[3]*PTESIZE" style="text;html=1;strokeColor=none;fillColor=none;align=center;verticalAlign=middle;whiteSpace=wrap;rounded=0;" parent="1" vertex="1">
          <mxGeometry x="84" y="400" width="286" height="20" as="geometry" />
        </mxCell>
        <mxCell id="E3-DCWuAJKOkuyqkyLfo-265" value="pte2.ppn * PAGESIZE+ VPN[2]*PTESIZE" style="text;html=1;strokeColor=none;fillColor=none;align=center;verticalAlign=middle;whiteSpace=wrap;rounded=0;" parent="1" vertex="1">
          <mxGeometry x="84" y="480" width="286" height="20" as="geometry" />
        </mxCell>
        <mxCell id="E3-DCWuAJKOkuyqkyLfo-266" value="pte1" style="text;html=1;strokeColor=none;fillColor=none;align=center;verticalAlign=middle;whiteSpace=wrap;rounded=0;" parent="1" vertex="1">
          <mxGeometry x="745" y="325" width="40" height="20" as="geometry" />
        </mxCell>
        <mxCell id="E3-DCWuAJKOkuyqkyLfo-269" value="page offset" style="rounded=0;whiteSpace=wrap;html=1;" parent="1" vertex="1">
          <mxGeometry x="529" y="660" width="90" height="20" as="geometry" />
        </mxCell>
        <mxCell id="E3-DCWuAJKOkuyqkyLfo-270" value="PPN[0]" style="rounded=0;whiteSpace=wrap;html=1;" parent="1" vertex="1">
          <mxGeometry x="469" y="660" width="60" height="20" as="geometry" />
        </mxCell>
        <mxCell id="E3-DCWuAJKOkuyqkyLfo-271" value="9" style="text;html=1;strokeColor=none;fillColor=none;align=center;verticalAlign=middle;whiteSpace=wrap;rounded=0;" parent="1" vertex="1">
          <mxGeometry x="479" y="680" width="40" height="20" as="geometry" />
        </mxCell>
        <mxCell id="E3-DCWuAJKOkuyqkyLfo-272" value="12" style="text;html=1;strokeColor=none;fillColor=none;align=center;verticalAlign=middle;whiteSpace=wrap;rounded=0;" parent="1" vertex="1">
          <mxGeometry x="554" y="680" width="40" height="17" as="geometry" />
        </mxCell>
        <mxCell id="E3-DCWuAJKOkuyqkyLfo-273" value="PPN[1]" style="rounded=0;whiteSpace=wrap;html=1;" parent="1" vertex="1">
          <mxGeometry x="409" y="660" width="60" height="20" as="geometry" />
        </mxCell>
        <mxCell id="E3-DCWuAJKOkuyqkyLfo-274" value="9" style="text;html=1;strokeColor=none;fillColor=none;align=center;verticalAlign=middle;whiteSpace=wrap;rounded=0;" parent="1" vertex="1">
          <mxGeometry x="419" y="680" width="40" height="20" as="geometry" />
        </mxCell>
        <mxCell id="E3-DCWuAJKOkuyqkyLfo-275" value="PPN[2]" style="rounded=0;whiteSpace=wrap;html=1;" parent="1" vertex="1">
          <mxGeometry x="349" y="660" width="60" height="20" as="geometry" />
        </mxCell>
        <mxCell id="E3-DCWuAJKOkuyqkyLfo-276" value="17" style="text;html=1;strokeColor=none;fillColor=none;align=center;verticalAlign=middle;whiteSpace=wrap;rounded=0;" parent="1" vertex="1">
          <mxGeometry x="300" y="680" width="40" height="20" as="geometry" />
        </mxCell>
        <mxCell id="E3-DCWuAJKOkuyqkyLfo-279" value="" style="endArrow=classic;html=1;entryX=1;entryY=0.5;entryDx=0;entryDy=0;exitX=1;exitY=0.5;exitDx=0;exitDy=0;" parent="1" source="E3-DCWuAJKOkuyqkyLfo-16" target="E3-DCWuAJKOkuyqkyLfo-269" edge="1">
          <mxGeometry width="50" height="50" relative="1" as="geometry">
            <mxPoint x="750" y="190" as="sourcePoint" />
            <mxPoint x="810" y="580" as="targetPoint" />
            <Array as="points">
              <mxPoint x="810" y="180" />
              <mxPoint x="810" y="670" />
            </Array>
          </mxGeometry>
        </mxCell>
        <mxCell id="E3-DCWuAJKOkuyqkyLfo-283" value="phisical address" style="text;html=1;strokeColor=none;fillColor=none;align=center;verticalAlign=middle;whiteSpace=wrap;rounded=0;" parent="1" vertex="1">
          <mxGeometry x="180" y="660" width="100" height="20" as="geometry" />
        </mxCell>
        <mxCell id="LQyN2fZaft3nYzOMAIvv-2" value="" style="endArrow=classic;html=1;entryX=0.5;entryY=0;entryDx=0;entryDy=0;fillColor=#e3c800;strokeColor=#B09500;strokeWidth=2;" parent="1" target="J9jAl2TMxWxcubqev3nk-34" edge="1">
          <mxGeometry width="50" height="50" relative="1" as="geometry">
            <mxPoint x="410" y="321" as="sourcePoint" />
            <mxPoint x="154" y="400" as="targetPoint" />
            <Array as="points">
              <mxPoint x="410" y="350" />
              <mxPoint x="104" y="350" />
            </Array>
          </mxGeometry>
        </mxCell>
        <mxCell id="J9jAl2TMxWxcubqev3nk-2" value="PPN[2]" style="rounded=0;whiteSpace=wrap;html=1;" parent="1" vertex="1">
          <mxGeometry x="350" y="305" width="60" height="20" as="geometry" />
        </mxCell>
        <mxCell id="J9jAl2TMxWxcubqev3nk-3" value="9" style="text;html=1;strokeColor=none;fillColor=none;align=center;verticalAlign=middle;whiteSpace=wrap;rounded=0;" parent="1" vertex="1">
          <mxGeometry x="360" y="285" width="40" height="20" as="geometry" />
        </mxCell>
        <mxCell id="J9jAl2TMxWxcubqev3nk-5" value="RSW" style="rounded=0;whiteSpace=wrap;html=1;" parent="1" vertex="1">
          <mxGeometry x="530" y="380" width="40" height="20" as="geometry" />
        </mxCell>
        <mxCell id="J9jAl2TMxWxcubqev3nk-6" value="PPN[0]" style="rounded=0;whiteSpace=wrap;html=1;" parent="1" vertex="1">
          <mxGeometry x="470" y="380" width="60" height="20" as="geometry" />
        </mxCell>
        <mxCell id="J9jAl2TMxWxcubqev3nk-7" value="9" style="text;html=1;strokeColor=none;fillColor=none;align=center;verticalAlign=middle;whiteSpace=wrap;rounded=0;" parent="1" vertex="1">
          <mxGeometry x="480" y="360" width="40" height="20" as="geometry" />
        </mxCell>
        <mxCell id="J9jAl2TMxWxcubqev3nk-8" value="D" style="rounded=0;whiteSpace=wrap;html=1;" parent="1" vertex="1">
          <mxGeometry x="570" y="380" width="30" height="20" as="geometry" />
        </mxCell>
        <mxCell id="J9jAl2TMxWxcubqev3nk-9" value="1" style="text;html=1;strokeColor=none;fillColor=none;align=center;verticalAlign=middle;whiteSpace=wrap;rounded=0;" parent="1" vertex="1">
          <mxGeometry x="715" y="360" width="40" height="20" as="geometry" />
        </mxCell>
        <mxCell id="J9jAl2TMxWxcubqev3nk-10" value="A" style="rounded=0;whiteSpace=wrap;html=1;" parent="1" vertex="1">
          <mxGeometry x="600" y="380" width="30" height="20" as="geometry" />
        </mxCell>
        <mxCell id="J9jAl2TMxWxcubqev3nk-11" value="G" style="rounded=0;whiteSpace=wrap;html=1;" parent="1" vertex="1">
          <mxGeometry x="630" y="380" width="30" height="20" as="geometry" />
        </mxCell>
        <mxCell id="J9jAl2TMxWxcubqev3nk-12" value="U" style="rounded=0;whiteSpace=wrap;html=1;" parent="1" vertex="1">
          <mxGeometry x="660" y="380" width="30" height="20" as="geometry" />
        </mxCell>
        <mxCell id="J9jAl2TMxWxcubqev3nk-13" value="X" style="rounded=0;whiteSpace=wrap;html=1;" parent="1" vertex="1">
          <mxGeometry x="690" y="380" width="30" height="20" as="geometry" />
        </mxCell>
        <mxCell id="J9jAl2TMxWxcubqev3nk-14" value="R" style="rounded=0;whiteSpace=wrap;html=1;" parent="1" vertex="1">
          <mxGeometry x="720" y="380" width="30" height="20" as="geometry" />
        </mxCell>
        <mxCell id="J9jAl2TMxWxcubqev3nk-15" value="V" style="rounded=0;whiteSpace=wrap;html=1;" parent="1" vertex="1">
          <mxGeometry x="750" y="380" width="30" height="20" as="geometry" />
        </mxCell>
        <mxCell id="J9jAl2TMxWxcubqev3nk-16" value="1" style="text;html=1;strokeColor=none;fillColor=none;align=center;verticalAlign=middle;whiteSpace=wrap;rounded=0;" parent="1" vertex="1">
          <mxGeometry x="745" y="360" width="40" height="20" as="geometry" />
        </mxCell>
        <mxCell id="J9jAl2TMxWxcubqev3nk-17" value="1" style="text;html=1;strokeColor=none;fillColor=none;align=center;verticalAlign=middle;whiteSpace=wrap;rounded=0;" parent="1" vertex="1">
          <mxGeometry x="685" y="360" width="40" height="20" as="geometry" />
        </mxCell>
        <mxCell id="J9jAl2TMxWxcubqev3nk-18" value="1" style="text;html=1;strokeColor=none;fillColor=none;align=center;verticalAlign=middle;whiteSpace=wrap;rounded=0;" parent="1" vertex="1">
          <mxGeometry x="655" y="360" width="40" height="20" as="geometry" />
        </mxCell>
        <mxCell id="J9jAl2TMxWxcubqev3nk-19" value="1" style="text;html=1;strokeColor=none;fillColor=none;align=center;verticalAlign=middle;whiteSpace=wrap;rounded=0;" parent="1" vertex="1">
          <mxGeometry x="625" y="360" width="40" height="20" as="geometry" />
        </mxCell>
        <mxCell id="J9jAl2TMxWxcubqev3nk-20" value="1" style="text;html=1;strokeColor=none;fillColor=none;align=center;verticalAlign=middle;whiteSpace=wrap;rounded=0;" parent="1" vertex="1">
          <mxGeometry x="595" y="360" width="40" height="20" as="geometry" />
        </mxCell>
        <mxCell id="J9jAl2TMxWxcubqev3nk-21" value="1" style="text;html=1;strokeColor=none;fillColor=none;align=center;verticalAlign=middle;whiteSpace=wrap;rounded=0;" parent="1" vertex="1">
          <mxGeometry x="565" y="360" width="40" height="20" as="geometry" />
        </mxCell>
        <mxCell id="J9jAl2TMxWxcubqev3nk-22" value="2" style="text;html=1;strokeColor=none;fillColor=none;align=center;verticalAlign=middle;whiteSpace=wrap;rounded=0;" parent="1" vertex="1">
          <mxGeometry x="530" y="360" width="40" height="20" as="geometry" />
        </mxCell>
        <mxCell id="J9jAl2TMxWxcubqev3nk-23" value="PPN[1]" style="rounded=0;whiteSpace=wrap;html=1;" parent="1" vertex="1">
          <mxGeometry x="410" y="380" width="60" height="20" as="geometry" />
        </mxCell>
        <mxCell id="J9jAl2TMxWxcubqev3nk-24" value="9" style="text;html=1;strokeColor=none;fillColor=none;align=center;verticalAlign=middle;whiteSpace=wrap;rounded=0;" parent="1" vertex="1">
          <mxGeometry x="420" y="360" width="40" height="20" as="geometry" />
        </mxCell>
        <mxCell id="J9jAl2TMxWxcubqev3nk-25" value="PPN[3]" style="rounded=0;whiteSpace=wrap;html=1;" parent="1" vertex="1">
          <mxGeometry x="290" y="380" width="60" height="20" as="geometry" />
        </mxCell>
        <mxCell id="J9jAl2TMxWxcubqev3nk-26" value="17" style="text;html=1;strokeColor=none;fillColor=none;align=center;verticalAlign=middle;whiteSpace=wrap;rounded=0;" parent="1" vertex="1">
          <mxGeometry x="300" y="360" width="40" height="20" as="geometry" />
        </mxCell>
        <mxCell id="J9jAl2TMxWxcubqev3nk-27" value="Reserved" style="rounded=0;whiteSpace=wrap;html=1;" parent="1" vertex="1">
          <mxGeometry x="230" y="380" width="60" height="20" as="geometry" />
        </mxCell>
        <mxCell id="J9jAl2TMxWxcubqev3nk-28" value="8" style="text;html=1;strokeColor=none;fillColor=none;align=center;verticalAlign=middle;whiteSpace=wrap;rounded=0;" parent="1" vertex="1">
          <mxGeometry x="240" y="360" width="40" height="20" as="geometry" />
        </mxCell>
        <mxCell id="J9jAl2TMxWxcubqev3nk-29" value="1" style="text;html=1;strokeColor=none;fillColor=none;align=center;verticalAlign=middle;whiteSpace=wrap;rounded=0;" parent="1" vertex="1">
          <mxGeometry x="164" y="360" width="40" height="20" as="geometry" />
        </mxCell>
        <mxCell id="J9jAl2TMxWxcubqev3nk-30" value="C" style="rounded=0;whiteSpace=wrap;html=1;" parent="1" vertex="1">
          <mxGeometry x="169" y="380" width="30" height="20" as="geometry" />
        </mxCell>
        <mxCell id="J9jAl2TMxWxcubqev3nk-31" value="N" style="rounded=0;whiteSpace=wrap;html=1;" parent="1" vertex="1">
          <mxGeometry x="199" y="380" width="31" height="20" as="geometry" />
        </mxCell>
        <mxCell id="J9jAl2TMxWxcubqev3nk-32" value="1" style="text;html=1;strokeColor=none;fillColor=none;align=center;verticalAlign=middle;whiteSpace=wrap;rounded=0;" parent="1" vertex="1">
          <mxGeometry x="194" y="360" width="40" height="20" as="geometry" />
        </mxCell>
        <mxCell id="J9jAl2TMxWxcubqev3nk-33" style="edgeStyle=orthogonalEdgeStyle;rounded=0;orthogonalLoop=1;jettySize=auto;html=1;exitX=1;exitY=0.5;exitDx=0;exitDy=0;" parent="1" source="J9jAl2TMxWxcubqev3nk-34" target="J9jAl2TMxWxcubqev3nk-30" edge="1">
          <mxGeometry relative="1" as="geometry" />
        </mxCell>
        <mxCell id="J9jAl2TMxWxcubqev3nk-34" value="" style="ellipse;whiteSpace=wrap;html=1;aspect=fixed;" parent="1" vertex="1">
          <mxGeometry x="84" y="370" width="40" height="40" as="geometry" />
        </mxCell>
        <mxCell id="J9jAl2TMxWxcubqev3nk-35" value="" style="endArrow=none;html=1;entryX=1;entryY=0.5;entryDx=0;entryDy=0;exitX=0;exitY=0.5;exitDx=0;exitDy=0;" parent="1" source="J9jAl2TMxWxcubqev3nk-34" target="J9jAl2TMxWxcubqev3nk-34" edge="1">
          <mxGeometry width="50" height="50" relative="1" as="geometry">
            <mxPoint x="124" y="430" as="sourcePoint" />
            <mxPoint x="100" y="440" as="targetPoint" />
          </mxGeometry>
        </mxCell>
        <mxCell id="J9jAl2TMxWxcubqev3nk-36" value="" style="endArrow=none;html=1;exitX=0.5;exitY=1;exitDx=0;exitDy=0;entryX=0.5;entryY=0;entryDx=0;entryDy=0;" parent="1" source="J9jAl2TMxWxcubqev3nk-34" target="J9jAl2TMxWxcubqev3nk-34" edge="1">
          <mxGeometry width="50" height="50" relative="1" as="geometry">
            <mxPoint x="100" y="500" as="sourcePoint" />
            <mxPoint x="120" y="450" as="targetPoint" />
          </mxGeometry>
        </mxCell>
        <mxCell id="J9jAl2TMxWxcubqev3nk-37" value="pte2" style="text;html=1;strokeColor=none;fillColor=none;align=center;verticalAlign=middle;whiteSpace=wrap;rounded=0;" parent="1" vertex="1">
          <mxGeometry x="745" y="400" width="40" height="20" as="geometry" />
        </mxCell>
        <mxCell id="J9jAl2TMxWxcubqev3nk-38" value="PPN[2]" style="rounded=0;whiteSpace=wrap;html=1;" parent="1" vertex="1">
          <mxGeometry x="350" y="380" width="60" height="20" as="geometry" />
        </mxCell>
        <mxCell id="J9jAl2TMxWxcubqev3nk-39" value="9" style="text;html=1;strokeColor=none;fillColor=none;align=center;verticalAlign=middle;whiteSpace=wrap;rounded=0;" parent="1" vertex="1">
          <mxGeometry x="360" y="360" width="40" height="20" as="geometry" />
        </mxCell>
        <mxCell id="J9jAl2TMxWxcubqev3nk-40" value="RSW" style="rounded=0;whiteSpace=wrap;html=1;" parent="1" vertex="1">
          <mxGeometry x="530" y="460" width="40" height="20" as="geometry" />
        </mxCell>
        <mxCell id="J9jAl2TMxWxcubqev3nk-41" value="PPN[0]" style="rounded=0;whiteSpace=wrap;html=1;" parent="1" vertex="1">
          <mxGeometry x="470" y="460" width="60" height="20" as="geometry" />
        </mxCell>
        <mxCell id="J9jAl2TMxWxcubqev3nk-42" value="9" style="text;html=1;strokeColor=none;fillColor=none;align=center;verticalAlign=middle;whiteSpace=wrap;rounded=0;" parent="1" vertex="1">
          <mxGeometry x="480" y="440" width="40" height="20" as="geometry" />
        </mxCell>
        <mxCell id="J9jAl2TMxWxcubqev3nk-43" value="D" style="rounded=0;whiteSpace=wrap;html=1;" parent="1" vertex="1">
          <mxGeometry x="570" y="460" width="30" height="20" as="geometry" />
        </mxCell>
        <mxCell id="J9jAl2TMxWxcubqev3nk-44" value="1" style="text;html=1;strokeColor=none;fillColor=none;align=center;verticalAlign=middle;whiteSpace=wrap;rounded=0;" parent="1" vertex="1">
          <mxGeometry x="715" y="440" width="40" height="20" as="geometry" />
        </mxCell>
        <mxCell id="J9jAl2TMxWxcubqev3nk-45" value="A" style="rounded=0;whiteSpace=wrap;html=1;" parent="1" vertex="1">
          <mxGeometry x="600" y="460" width="30" height="20" as="geometry" />
        </mxCell>
        <mxCell id="J9jAl2TMxWxcubqev3nk-46" value="G" style="rounded=0;whiteSpace=wrap;html=1;" parent="1" vertex="1">
          <mxGeometry x="630" y="460" width="30" height="20" as="geometry" />
        </mxCell>
        <mxCell id="J9jAl2TMxWxcubqev3nk-47" value="U" style="rounded=0;whiteSpace=wrap;html=1;" parent="1" vertex="1">
          <mxGeometry x="660" y="460" width="30" height="20" as="geometry" />
        </mxCell>
        <mxCell id="J9jAl2TMxWxcubqev3nk-48" value="X" style="rounded=0;whiteSpace=wrap;html=1;" parent="1" vertex="1">
          <mxGeometry x="690" y="460" width="30" height="20" as="geometry" />
        </mxCell>
        <mxCell id="J9jAl2TMxWxcubqev3nk-49" value="R" style="rounded=0;whiteSpace=wrap;html=1;" parent="1" vertex="1">
          <mxGeometry x="720" y="460" width="30" height="20" as="geometry" />
        </mxCell>
        <mxCell id="J9jAl2TMxWxcubqev3nk-50" value="V" style="rounded=0;whiteSpace=wrap;html=1;" parent="1" vertex="1">
          <mxGeometry x="750" y="460" width="30" height="20" as="geometry" />
        </mxCell>
        <mxCell id="J9jAl2TMxWxcubqev3nk-51" value="1" style="text;html=1;strokeColor=none;fillColor=none;align=center;verticalAlign=middle;whiteSpace=wrap;rounded=0;" parent="1" vertex="1">
          <mxGeometry x="745" y="440" width="40" height="20" as="geometry" />
        </mxCell>
        <mxCell id="J9jAl2TMxWxcubqev3nk-52" value="1" style="text;html=1;strokeColor=none;fillColor=none;align=center;verticalAlign=middle;whiteSpace=wrap;rounded=0;" parent="1" vertex="1">
          <mxGeometry x="685" y="440" width="40" height="20" as="geometry" />
        </mxCell>
        <mxCell id="J9jAl2TMxWxcubqev3nk-53" value="1" style="text;html=1;strokeColor=none;fillColor=none;align=center;verticalAlign=middle;whiteSpace=wrap;rounded=0;" parent="1" vertex="1">
          <mxGeometry x="655" y="440" width="40" height="20" as="geometry" />
        </mxCell>
        <mxCell id="J9jAl2TMxWxcubqev3nk-54" value="1" style="text;html=1;strokeColor=none;fillColor=none;align=center;verticalAlign=middle;whiteSpace=wrap;rounded=0;" parent="1" vertex="1">
          <mxGeometry x="625" y="440" width="40" height="20" as="geometry" />
        </mxCell>
        <mxCell id="J9jAl2TMxWxcubqev3nk-55" value="1" style="text;html=1;strokeColor=none;fillColor=none;align=center;verticalAlign=middle;whiteSpace=wrap;rounded=0;" parent="1" vertex="1">
          <mxGeometry x="595" y="440" width="40" height="20" as="geometry" />
        </mxCell>
        <mxCell id="J9jAl2TMxWxcubqev3nk-56" value="1" style="text;html=1;strokeColor=none;fillColor=none;align=center;verticalAlign=middle;whiteSpace=wrap;rounded=0;" parent="1" vertex="1">
          <mxGeometry x="565" y="440" width="40" height="20" as="geometry" />
        </mxCell>
        <mxCell id="J9jAl2TMxWxcubqev3nk-57" value="2" style="text;html=1;strokeColor=none;fillColor=none;align=center;verticalAlign=middle;whiteSpace=wrap;rounded=0;" parent="1" vertex="1">
          <mxGeometry x="530" y="440" width="40" height="20" as="geometry" />
        </mxCell>
        <mxCell id="J9jAl2TMxWxcubqev3nk-58" value="PPN[1]" style="rounded=0;whiteSpace=wrap;html=1;" parent="1" vertex="1">
          <mxGeometry x="410" y="460" width="60" height="20" as="geometry" />
        </mxCell>
        <mxCell id="J9jAl2TMxWxcubqev3nk-59" value="9" style="text;html=1;strokeColor=none;fillColor=none;align=center;verticalAlign=middle;whiteSpace=wrap;rounded=0;" parent="1" vertex="1">
          <mxGeometry x="420" y="440" width="40" height="20" as="geometry" />
        </mxCell>
        <mxCell id="J9jAl2TMxWxcubqev3nk-60" value="PPN[3]" style="rounded=0;whiteSpace=wrap;html=1;" parent="1" vertex="1">
          <mxGeometry x="290" y="460" width="60" height="20" as="geometry" />
        </mxCell>
        <mxCell id="J9jAl2TMxWxcubqev3nk-61" value="17" style="text;html=1;strokeColor=none;fillColor=none;align=center;verticalAlign=middle;whiteSpace=wrap;rounded=0;" parent="1" vertex="1">
          <mxGeometry x="300" y="440" width="40" height="20" as="geometry" />
        </mxCell>
        <mxCell id="J9jAl2TMxWxcubqev3nk-62" value="Reserved" style="rounded=0;whiteSpace=wrap;html=1;" parent="1" vertex="1">
          <mxGeometry x="230" y="460" width="60" height="20" as="geometry" />
        </mxCell>
        <mxCell id="J9jAl2TMxWxcubqev3nk-63" value="8" style="text;html=1;strokeColor=none;fillColor=none;align=center;verticalAlign=middle;whiteSpace=wrap;rounded=0;" parent="1" vertex="1">
          <mxGeometry x="240" y="440" width="40" height="20" as="geometry" />
        </mxCell>
        <mxCell id="J9jAl2TMxWxcubqev3nk-64" value="1" style="text;html=1;strokeColor=none;fillColor=none;align=center;verticalAlign=middle;whiteSpace=wrap;rounded=0;" parent="1" vertex="1">
          <mxGeometry x="164" y="440" width="40" height="20" as="geometry" />
        </mxCell>
        <mxCell id="J9jAl2TMxWxcubqev3nk-65" value="C" style="rounded=0;whiteSpace=wrap;html=1;" parent="1" vertex="1">
          <mxGeometry x="169" y="460" width="30" height="20" as="geometry" />
        </mxCell>
        <mxCell id="J9jAl2TMxWxcubqev3nk-66" value="N" style="rounded=0;whiteSpace=wrap;html=1;" parent="1" vertex="1">
          <mxGeometry x="199" y="460" width="31" height="20" as="geometry" />
        </mxCell>
        <mxCell id="J9jAl2TMxWxcubqev3nk-67" value="1" style="text;html=1;strokeColor=none;fillColor=none;align=center;verticalAlign=middle;whiteSpace=wrap;rounded=0;" parent="1" vertex="1">
          <mxGeometry x="194" y="440" width="40" height="20" as="geometry" />
        </mxCell>
        <mxCell id="J9jAl2TMxWxcubqev3nk-68" style="edgeStyle=orthogonalEdgeStyle;rounded=0;orthogonalLoop=1;jettySize=auto;html=1;exitX=1;exitY=0.5;exitDx=0;exitDy=0;" parent="1" source="J9jAl2TMxWxcubqev3nk-69" target="J9jAl2TMxWxcubqev3nk-65" edge="1">
          <mxGeometry relative="1" as="geometry" />
        </mxCell>
        <mxCell id="J9jAl2TMxWxcubqev3nk-69" value="" style="ellipse;whiteSpace=wrap;html=1;aspect=fixed;" parent="1" vertex="1">
          <mxGeometry x="84" y="450" width="40" height="40" as="geometry" />
        </mxCell>
        <mxCell id="J9jAl2TMxWxcubqev3nk-70" value="" style="endArrow=none;html=1;entryX=1;entryY=0.5;entryDx=0;entryDy=0;exitX=0;exitY=0.5;exitDx=0;exitDy=0;" parent="1" source="J9jAl2TMxWxcubqev3nk-69" target="J9jAl2TMxWxcubqev3nk-69" edge="1">
          <mxGeometry width="50" height="50" relative="1" as="geometry">
            <mxPoint x="124" y="510" as="sourcePoint" />
            <mxPoint x="100" y="520" as="targetPoint" />
          </mxGeometry>
        </mxCell>
        <mxCell id="J9jAl2TMxWxcubqev3nk-71" value="" style="endArrow=none;html=1;exitX=0.5;exitY=1;exitDx=0;exitDy=0;entryX=0.5;entryY=0;entryDx=0;entryDy=0;" parent="1" source="J9jAl2TMxWxcubqev3nk-69" target="J9jAl2TMxWxcubqev3nk-69" edge="1">
          <mxGeometry width="50" height="50" relative="1" as="geometry">
            <mxPoint x="100" y="580" as="sourcePoint" />
            <mxPoint x="120" y="530" as="targetPoint" />
          </mxGeometry>
        </mxCell>
        <mxCell id="J9jAl2TMxWxcubqev3nk-72" value="pte3" style="text;html=1;strokeColor=none;fillColor=none;align=center;verticalAlign=middle;whiteSpace=wrap;rounded=0;" parent="1" vertex="1">
          <mxGeometry x="745" y="480" width="40" height="20" as="geometry" />
        </mxCell>
        <mxCell id="J9jAl2TMxWxcubqev3nk-73" value="PPN[2]" style="rounded=0;whiteSpace=wrap;html=1;" parent="1" vertex="1">
          <mxGeometry x="350" y="460" width="60" height="20" as="geometry" />
        </mxCell>
        <mxCell id="J9jAl2TMxWxcubqev3nk-74" value="9" style="text;html=1;strokeColor=none;fillColor=none;align=center;verticalAlign=middle;whiteSpace=wrap;rounded=0;" parent="1" vertex="1">
          <mxGeometry x="360" y="440" width="40" height="20" as="geometry" />
        </mxCell>
        <mxCell id="J9jAl2TMxWxcubqev3nk-110" value="RSW" style="rounded=0;whiteSpace=wrap;html=1;" parent="1" vertex="1">
          <mxGeometry x="530" y="530" width="40" height="20" as="geometry" />
        </mxCell>
        <mxCell id="J9jAl2TMxWxcubqev3nk-111" value="PPN[0]" style="rounded=0;whiteSpace=wrap;html=1;" parent="1" vertex="1">
          <mxGeometry x="470" y="530" width="60" height="20" as="geometry" />
        </mxCell>
        <mxCell id="J9jAl2TMxWxcubqev3nk-112" value="9" style="text;html=1;strokeColor=none;fillColor=none;align=center;verticalAlign=middle;whiteSpace=wrap;rounded=0;" parent="1" vertex="1">
          <mxGeometry x="480" y="510" width="40" height="20" as="geometry" />
        </mxCell>
        <mxCell id="J9jAl2TMxWxcubqev3nk-113" value="D" style="rounded=0;whiteSpace=wrap;html=1;" parent="1" vertex="1">
          <mxGeometry x="570" y="530" width="30" height="20" as="geometry" />
        </mxCell>
        <mxCell id="J9jAl2TMxWxcubqev3nk-114" value="1" style="text;html=1;strokeColor=none;fillColor=none;align=center;verticalAlign=middle;whiteSpace=wrap;rounded=0;" parent="1" vertex="1">
          <mxGeometry x="715" y="510" width="40" height="20" as="geometry" />
        </mxCell>
        <mxCell id="J9jAl2TMxWxcubqev3nk-115" value="A" style="rounded=0;whiteSpace=wrap;html=1;" parent="1" vertex="1">
          <mxGeometry x="600" y="530" width="30" height="20" as="geometry" />
        </mxCell>
        <mxCell id="J9jAl2TMxWxcubqev3nk-116" value="G" style="rounded=0;whiteSpace=wrap;html=1;" parent="1" vertex="1">
          <mxGeometry x="630" y="530" width="30" height="20" as="geometry" />
        </mxCell>
        <mxCell id="J9jAl2TMxWxcubqev3nk-117" value="U" style="rounded=0;whiteSpace=wrap;html=1;" parent="1" vertex="1">
          <mxGeometry x="660" y="530" width="30" height="20" as="geometry" />
        </mxCell>
        <mxCell id="J9jAl2TMxWxcubqev3nk-118" value="X" style="rounded=0;whiteSpace=wrap;html=1;" parent="1" vertex="1">
          <mxGeometry x="690" y="530" width="30" height="20" as="geometry" />
        </mxCell>
        <mxCell id="J9jAl2TMxWxcubqev3nk-119" value="R" style="rounded=0;whiteSpace=wrap;html=1;" parent="1" vertex="1">
          <mxGeometry x="720" y="530" width="30" height="20" as="geometry" />
        </mxCell>
        <mxCell id="J9jAl2TMxWxcubqev3nk-120" value="V" style="rounded=0;whiteSpace=wrap;html=1;" parent="1" vertex="1">
          <mxGeometry x="750" y="530" width="30" height="20" as="geometry" />
        </mxCell>
        <mxCell id="J9jAl2TMxWxcubqev3nk-121" value="1" style="text;html=1;strokeColor=none;fillColor=none;align=center;verticalAlign=middle;whiteSpace=wrap;rounded=0;" parent="1" vertex="1">
          <mxGeometry x="745" y="510" width="40" height="20" as="geometry" />
        </mxCell>
        <mxCell id="J9jAl2TMxWxcubqev3nk-122" value="1" style="text;html=1;strokeColor=none;fillColor=none;align=center;verticalAlign=middle;whiteSpace=wrap;rounded=0;" parent="1" vertex="1">
          <mxGeometry x="685" y="510" width="40" height="20" as="geometry" />
        </mxCell>
        <mxCell id="J9jAl2TMxWxcubqev3nk-123" value="1" style="text;html=1;strokeColor=none;fillColor=none;align=center;verticalAlign=middle;whiteSpace=wrap;rounded=0;" parent="1" vertex="1">
          <mxGeometry x="655" y="510" width="40" height="20" as="geometry" />
        </mxCell>
        <mxCell id="J9jAl2TMxWxcubqev3nk-124" value="1" style="text;html=1;strokeColor=none;fillColor=none;align=center;verticalAlign=middle;whiteSpace=wrap;rounded=0;" parent="1" vertex="1">
          <mxGeometry x="625" y="510" width="40" height="20" as="geometry" />
        </mxCell>
        <mxCell id="J9jAl2TMxWxcubqev3nk-125" value="1" style="text;html=1;strokeColor=none;fillColor=none;align=center;verticalAlign=middle;whiteSpace=wrap;rounded=0;" parent="1" vertex="1">
          <mxGeometry x="595" y="510" width="40" height="20" as="geometry" />
        </mxCell>
        <mxCell id="J9jAl2TMxWxcubqev3nk-126" value="1" style="text;html=1;strokeColor=none;fillColor=none;align=center;verticalAlign=middle;whiteSpace=wrap;rounded=0;" parent="1" vertex="1">
          <mxGeometry x="565" y="510" width="40" height="20" as="geometry" />
        </mxCell>
        <mxCell id="J9jAl2TMxWxcubqev3nk-127" value="2" style="text;html=1;strokeColor=none;fillColor=none;align=center;verticalAlign=middle;whiteSpace=wrap;rounded=0;" parent="1" vertex="1">
          <mxGeometry x="530" y="510" width="40" height="20" as="geometry" />
        </mxCell>
        <mxCell id="J9jAl2TMxWxcubqev3nk-128" value="PPN[1]" style="rounded=0;whiteSpace=wrap;html=1;" parent="1" vertex="1">
          <mxGeometry x="410" y="530" width="60" height="20" as="geometry" />
        </mxCell>
        <mxCell id="J9jAl2TMxWxcubqev3nk-129" value="9" style="text;html=1;strokeColor=none;fillColor=none;align=center;verticalAlign=middle;whiteSpace=wrap;rounded=0;" parent="1" vertex="1">
          <mxGeometry x="420" y="510" width="40" height="20" as="geometry" />
        </mxCell>
        <mxCell id="J9jAl2TMxWxcubqev3nk-130" value="PPN[3]" style="rounded=0;whiteSpace=wrap;html=1;" parent="1" vertex="1">
          <mxGeometry x="290" y="530" width="60" height="20" as="geometry" />
        </mxCell>
        <mxCell id="J9jAl2TMxWxcubqev3nk-131" value="17" style="text;html=1;strokeColor=none;fillColor=none;align=center;verticalAlign=middle;whiteSpace=wrap;rounded=0;" parent="1" vertex="1">
          <mxGeometry x="300" y="510" width="40" height="20" as="geometry" />
        </mxCell>
        <mxCell id="J9jAl2TMxWxcubqev3nk-132" value="Reserved" style="rounded=0;whiteSpace=wrap;html=1;" parent="1" vertex="1">
          <mxGeometry x="230" y="530" width="60" height="20" as="geometry" />
        </mxCell>
        <mxCell id="J9jAl2TMxWxcubqev3nk-133" value="8" style="text;html=1;strokeColor=none;fillColor=none;align=center;verticalAlign=middle;whiteSpace=wrap;rounded=0;" parent="1" vertex="1">
          <mxGeometry x="240" y="510" width="40" height="20" as="geometry" />
        </mxCell>
        <mxCell id="J9jAl2TMxWxcubqev3nk-134" value="1" style="text;html=1;strokeColor=none;fillColor=none;align=center;verticalAlign=middle;whiteSpace=wrap;rounded=0;" parent="1" vertex="1">
          <mxGeometry x="164" y="510" width="40" height="20" as="geometry" />
        </mxCell>
        <mxCell id="J9jAl2TMxWxcubqev3nk-135" value="C" style="rounded=0;whiteSpace=wrap;html=1;" parent="1" vertex="1">
          <mxGeometry x="169" y="530" width="30" height="20" as="geometry" />
        </mxCell>
        <mxCell id="J9jAl2TMxWxcubqev3nk-136" value="N" style="rounded=0;whiteSpace=wrap;html=1;" parent="1" vertex="1">
          <mxGeometry x="199" y="530" width="31" height="20" as="geometry" />
        </mxCell>
        <mxCell id="J9jAl2TMxWxcubqev3nk-137" value="1" style="text;html=1;strokeColor=none;fillColor=none;align=center;verticalAlign=middle;whiteSpace=wrap;rounded=0;" parent="1" vertex="1">
          <mxGeometry x="194" y="510" width="40" height="20" as="geometry" />
        </mxCell>
        <mxCell id="J9jAl2TMxWxcubqev3nk-138" style="edgeStyle=orthogonalEdgeStyle;rounded=0;orthogonalLoop=1;jettySize=auto;html=1;exitX=1;exitY=0.5;exitDx=0;exitDy=0;" parent="1" source="J9jAl2TMxWxcubqev3nk-139" target="J9jAl2TMxWxcubqev3nk-135" edge="1">
          <mxGeometry relative="1" as="geometry" />
        </mxCell>
        <mxCell id="J9jAl2TMxWxcubqev3nk-139" value="" style="ellipse;whiteSpace=wrap;html=1;aspect=fixed;" parent="1" vertex="1">
          <mxGeometry x="84" y="520" width="40" height="40" as="geometry" />
        </mxCell>
        <mxCell id="J9jAl2TMxWxcubqev3nk-140" value="" style="endArrow=none;html=1;entryX=1;entryY=0.5;entryDx=0;entryDy=0;exitX=0;exitY=0.5;exitDx=0;exitDy=0;" parent="1" source="J9jAl2TMxWxcubqev3nk-139" target="J9jAl2TMxWxcubqev3nk-139" edge="1">
          <mxGeometry width="50" height="50" relative="1" as="geometry">
            <mxPoint x="124" y="580" as="sourcePoint" />
            <mxPoint x="100" y="590" as="targetPoint" />
          </mxGeometry>
        </mxCell>
        <mxCell id="J9jAl2TMxWxcubqev3nk-141" value="" style="endArrow=none;html=1;exitX=0.5;exitY=1;exitDx=0;exitDy=0;entryX=0.5;entryY=0;entryDx=0;entryDy=0;" parent="1" source="J9jAl2TMxWxcubqev3nk-139" target="J9jAl2TMxWxcubqev3nk-139" edge="1">
          <mxGeometry width="50" height="50" relative="1" as="geometry">
            <mxPoint x="100" y="650" as="sourcePoint" />
            <mxPoint x="120" y="600" as="targetPoint" />
          </mxGeometry>
        </mxCell>
        <mxCell id="J9jAl2TMxWxcubqev3nk-142" value="pte4" style="text;html=1;strokeColor=none;fillColor=none;align=center;verticalAlign=middle;whiteSpace=wrap;rounded=0;" parent="1" vertex="1">
          <mxGeometry x="745" y="550" width="40" height="20" as="geometry" />
        </mxCell>
        <mxCell id="J9jAl2TMxWxcubqev3nk-143" value="PPN[2]" style="rounded=0;whiteSpace=wrap;html=1;" parent="1" vertex="1">
          <mxGeometry x="350" y="530" width="60" height="20" as="geometry" />
        </mxCell>
        <mxCell id="J9jAl2TMxWxcubqev3nk-144" value="9" style="text;html=1;strokeColor=none;fillColor=none;align=center;verticalAlign=middle;whiteSpace=wrap;rounded=0;" parent="1" vertex="1">
          <mxGeometry x="360" y="510" width="40" height="20" as="geometry" />
        </mxCell>
        <mxCell id="J9jAl2TMxWxcubqev3nk-145" value="RSW" style="rounded=0;whiteSpace=wrap;html=1;" parent="1" vertex="1">
          <mxGeometry x="530" y="600" width="40" height="20" as="geometry" />
        </mxCell>
        <mxCell id="J9jAl2TMxWxcubqev3nk-146" value="PPN[0]" style="rounded=0;whiteSpace=wrap;html=1;" parent="1" vertex="1">
          <mxGeometry x="470" y="600" width="60" height="20" as="geometry" />
        </mxCell>
        <mxCell id="J9jAl2TMxWxcubqev3nk-147" value="9" style="text;html=1;strokeColor=none;fillColor=none;align=center;verticalAlign=middle;whiteSpace=wrap;rounded=0;" parent="1" vertex="1">
          <mxGeometry x="480" y="580" width="40" height="20" as="geometry" />
        </mxCell>
        <mxCell id="J9jAl2TMxWxcubqev3nk-148" value="D" style="rounded=0;whiteSpace=wrap;html=1;" parent="1" vertex="1">
          <mxGeometry x="570" y="600" width="30" height="20" as="geometry" />
        </mxCell>
        <mxCell id="J9jAl2TMxWxcubqev3nk-149" value="1" style="text;html=1;strokeColor=none;fillColor=none;align=center;verticalAlign=middle;whiteSpace=wrap;rounded=0;" parent="1" vertex="1">
          <mxGeometry x="715" y="580" width="40" height="20" as="geometry" />
        </mxCell>
        <mxCell id="J9jAl2TMxWxcubqev3nk-150" value="A" style="rounded=0;whiteSpace=wrap;html=1;" parent="1" vertex="1">
          <mxGeometry x="600" y="600" width="30" height="20" as="geometry" />
        </mxCell>
        <mxCell id="J9jAl2TMxWxcubqev3nk-151" value="G" style="rounded=0;whiteSpace=wrap;html=1;" parent="1" vertex="1">
          <mxGeometry x="630" y="600" width="30" height="20" as="geometry" />
        </mxCell>
        <mxCell id="J9jAl2TMxWxcubqev3nk-152" value="U" style="rounded=0;whiteSpace=wrap;html=1;" parent="1" vertex="1">
          <mxGeometry x="660" y="600" width="30" height="20" as="geometry" />
        </mxCell>
        <mxCell id="J9jAl2TMxWxcubqev3nk-153" value="X" style="rounded=0;whiteSpace=wrap;html=1;" parent="1" vertex="1">
          <mxGeometry x="690" y="600" width="30" height="20" as="geometry" />
        </mxCell>
        <mxCell id="J9jAl2TMxWxcubqev3nk-154" value="R" style="rounded=0;whiteSpace=wrap;html=1;" parent="1" vertex="1">
          <mxGeometry x="720" y="600" width="30" height="20" as="geometry" />
        </mxCell>
        <mxCell id="J9jAl2TMxWxcubqev3nk-155" value="V" style="rounded=0;whiteSpace=wrap;html=1;" parent="1" vertex="1">
          <mxGeometry x="750" y="600" width="30" height="20" as="geometry" />
        </mxCell>
        <mxCell id="J9jAl2TMxWxcubqev3nk-156" value="1" style="text;html=1;strokeColor=none;fillColor=none;align=center;verticalAlign=middle;whiteSpace=wrap;rounded=0;" parent="1" vertex="1">
          <mxGeometry x="745" y="580" width="40" height="20" as="geometry" />
        </mxCell>
        <mxCell id="J9jAl2TMxWxcubqev3nk-157" value="1" style="text;html=1;strokeColor=none;fillColor=none;align=center;verticalAlign=middle;whiteSpace=wrap;rounded=0;" parent="1" vertex="1">
          <mxGeometry x="685" y="580" width="40" height="20" as="geometry" />
        </mxCell>
        <mxCell id="J9jAl2TMxWxcubqev3nk-158" value="1" style="text;html=1;strokeColor=none;fillColor=none;align=center;verticalAlign=middle;whiteSpace=wrap;rounded=0;" parent="1" vertex="1">
          <mxGeometry x="655" y="580" width="40" height="20" as="geometry" />
        </mxCell>
        <mxCell id="J9jAl2TMxWxcubqev3nk-159" value="1" style="text;html=1;strokeColor=none;fillColor=none;align=center;verticalAlign=middle;whiteSpace=wrap;rounded=0;" parent="1" vertex="1">
          <mxGeometry x="625" y="580" width="40" height="20" as="geometry" />
        </mxCell>
        <mxCell id="J9jAl2TMxWxcubqev3nk-160" value="1" style="text;html=1;strokeColor=none;fillColor=none;align=center;verticalAlign=middle;whiteSpace=wrap;rounded=0;" parent="1" vertex="1">
          <mxGeometry x="595" y="580" width="40" height="20" as="geometry" />
        </mxCell>
        <mxCell id="J9jAl2TMxWxcubqev3nk-161" value="1" style="text;html=1;strokeColor=none;fillColor=none;align=center;verticalAlign=middle;whiteSpace=wrap;rounded=0;" parent="1" vertex="1">
          <mxGeometry x="565" y="580" width="40" height="20" as="geometry" />
        </mxCell>
        <mxCell id="J9jAl2TMxWxcubqev3nk-162" value="2" style="text;html=1;strokeColor=none;fillColor=none;align=center;verticalAlign=middle;whiteSpace=wrap;rounded=0;" parent="1" vertex="1">
          <mxGeometry x="530" y="580" width="40" height="20" as="geometry" />
        </mxCell>
        <mxCell id="J9jAl2TMxWxcubqev3nk-163" value="PPN[1]" style="rounded=0;whiteSpace=wrap;html=1;" parent="1" vertex="1">
          <mxGeometry x="410" y="600" width="60" height="20" as="geometry" />
        </mxCell>
        <mxCell id="J9jAl2TMxWxcubqev3nk-164" value="9" style="text;html=1;strokeColor=none;fillColor=none;align=center;verticalAlign=middle;whiteSpace=wrap;rounded=0;" parent="1" vertex="1">
          <mxGeometry x="420" y="580" width="40" height="20" as="geometry" />
        </mxCell>
        <mxCell id="J9jAl2TMxWxcubqev3nk-165" value="PPN[3]" style="rounded=0;whiteSpace=wrap;html=1;" parent="1" vertex="1">
          <mxGeometry x="290" y="600" width="60" height="20" as="geometry" />
        </mxCell>
        <mxCell id="J9jAl2TMxWxcubqev3nk-166" value="17" style="text;html=1;strokeColor=none;fillColor=none;align=center;verticalAlign=middle;whiteSpace=wrap;rounded=0;" parent="1" vertex="1">
          <mxGeometry x="300" y="580" width="40" height="20" as="geometry" />
        </mxCell>
        <mxCell id="J9jAl2TMxWxcubqev3nk-167" value="Reserved" style="rounded=0;whiteSpace=wrap;html=1;" parent="1" vertex="1">
          <mxGeometry x="230" y="600" width="60" height="20" as="geometry" />
        </mxCell>
        <mxCell id="J9jAl2TMxWxcubqev3nk-168" value="8" style="text;html=1;strokeColor=none;fillColor=none;align=center;verticalAlign=middle;whiteSpace=wrap;rounded=0;" parent="1" vertex="1">
          <mxGeometry x="240" y="580" width="40" height="20" as="geometry" />
        </mxCell>
        <mxCell id="J9jAl2TMxWxcubqev3nk-169" value="1" style="text;html=1;strokeColor=none;fillColor=none;align=center;verticalAlign=middle;whiteSpace=wrap;rounded=0;" parent="1" vertex="1">
          <mxGeometry x="164" y="580" width="40" height="20" as="geometry" />
        </mxCell>
        <mxCell id="J9jAl2TMxWxcubqev3nk-170" value="C" style="rounded=0;whiteSpace=wrap;html=1;" parent="1" vertex="1">
          <mxGeometry x="169" y="600" width="30" height="20" as="geometry" />
        </mxCell>
        <mxCell id="J9jAl2TMxWxcubqev3nk-171" value="N" style="rounded=0;whiteSpace=wrap;html=1;" parent="1" vertex="1">
          <mxGeometry x="199" y="600" width="31" height="20" as="geometry" />
        </mxCell>
        <mxCell id="J9jAl2TMxWxcubqev3nk-172" value="1" style="text;html=1;strokeColor=none;fillColor=none;align=center;verticalAlign=middle;whiteSpace=wrap;rounded=0;" parent="1" vertex="1">
          <mxGeometry x="194" y="580" width="40" height="20" as="geometry" />
        </mxCell>
        <mxCell id="J9jAl2TMxWxcubqev3nk-173" style="edgeStyle=orthogonalEdgeStyle;rounded=0;orthogonalLoop=1;jettySize=auto;html=1;exitX=1;exitY=0.5;exitDx=0;exitDy=0;" parent="1" source="J9jAl2TMxWxcubqev3nk-174" target="J9jAl2TMxWxcubqev3nk-170" edge="1">
          <mxGeometry relative="1" as="geometry" />
        </mxCell>
        <mxCell id="J9jAl2TMxWxcubqev3nk-174" value="" style="ellipse;whiteSpace=wrap;html=1;aspect=fixed;" parent="1" vertex="1">
          <mxGeometry x="84" y="590" width="40" height="40" as="geometry" />
        </mxCell>
        <mxCell id="J9jAl2TMxWxcubqev3nk-175" value="" style="endArrow=none;html=1;entryX=1;entryY=0.5;entryDx=0;entryDy=0;exitX=0;exitY=0.5;exitDx=0;exitDy=0;" parent="1" source="J9jAl2TMxWxcubqev3nk-174" target="J9jAl2TMxWxcubqev3nk-174" edge="1">
          <mxGeometry width="50" height="50" relative="1" as="geometry">
            <mxPoint x="124" y="650" as="sourcePoint" />
            <mxPoint x="100" y="660" as="targetPoint" />
          </mxGeometry>
        </mxCell>
        <mxCell id="J9jAl2TMxWxcubqev3nk-176" value="" style="endArrow=none;html=1;exitX=0.5;exitY=1;exitDx=0;exitDy=0;entryX=0.5;entryY=0;entryDx=0;entryDy=0;" parent="1" source="J9jAl2TMxWxcubqev3nk-174" target="J9jAl2TMxWxcubqev3nk-174" edge="1">
          <mxGeometry width="50" height="50" relative="1" as="geometry">
            <mxPoint x="100" y="720" as="sourcePoint" />
            <mxPoint x="120" y="670" as="targetPoint" />
          </mxGeometry>
        </mxCell>
        <mxCell id="J9jAl2TMxWxcubqev3nk-177" value="pte5" style="text;html=1;strokeColor=none;fillColor=none;align=center;verticalAlign=middle;whiteSpace=wrap;rounded=0;" parent="1" vertex="1">
          <mxGeometry x="745" y="620" width="40" height="20" as="geometry" />
        </mxCell>
        <mxCell id="J9jAl2TMxWxcubqev3nk-178" value="PPN[2]" style="rounded=0;whiteSpace=wrap;html=1;" parent="1" vertex="1">
          <mxGeometry x="350" y="600" width="60" height="20" as="geometry" />
        </mxCell>
        <mxCell id="J9jAl2TMxWxcubqev3nk-179" value="9" style="text;html=1;strokeColor=none;fillColor=none;align=center;verticalAlign=middle;whiteSpace=wrap;rounded=0;" parent="1" vertex="1">
          <mxGeometry x="360" y="580" width="40" height="20" as="geometry" />
        </mxCell>
        <mxCell id="J9jAl2TMxWxcubqev3nk-180" value="PPN[3]" style="rounded=0;whiteSpace=wrap;html=1;" parent="1" vertex="1">
          <mxGeometry x="290" y="660" width="60" height="20" as="geometry" />
        </mxCell>
        <mxCell id="J9jAl2TMxWxcubqev3nk-181" value="VPN[3]" style="rounded=0;whiteSpace=wrap;html=1;" parent="1" vertex="1">
          <mxGeometry x="420" y="170" width="60" height="20" as="geometry" />
        </mxCell>
        <mxCell id="J9jAl2TMxWxcubqev3nk-182" value="VPN[4]" style="rounded=0;whiteSpace=wrap;html=1;" parent="1" vertex="1">
          <mxGeometry x="360" y="170" width="60" height="20" as="geometry" />
        </mxCell>
        <mxCell id="J9jAl2TMxWxcubqev3nk-183" value="9" style="text;html=1;strokeColor=none;fillColor=none;align=center;verticalAlign=middle;whiteSpace=wrap;rounded=0;" parent="1" vertex="1">
          <mxGeometry x="369" y="150" width="40" height="20" as="geometry" />
        </mxCell>
        <mxCell id="J9jAl2TMxWxcubqev3nk-184" value="9" style="text;html=1;strokeColor=none;fillColor=none;align=center;verticalAlign=middle;whiteSpace=wrap;rounded=0;" parent="1" vertex="1">
          <mxGeometry x="429" y="150" width="40" height="20" as="geometry" />
        </mxCell>
        <mxCell id="J9jAl2TMxWxcubqev3nk-185" value="" style="endArrow=classic;html=1;exitX=0.5;exitY=1;exitDx=0;exitDy=0;entryX=0;entryY=0.5;entryDx=0;entryDy=0;fillColor=#008a00;strokeColor=#005700;strokeWidth=2;" parent="1" source="E3-DCWuAJKOkuyqkyLfo-9" edge="1">
          <mxGeometry width="50" height="50" relative="1" as="geometry">
            <mxPoint x="455" y="270" as="sourcePoint" />
            <mxPoint x="89" y="470" as="targetPoint" />
            <Array as="points">
              <mxPoint x="510" y="240" />
              <mxPoint x="50" y="240" />
              <mxPoint x="50" y="470" />
            </Array>
          </mxGeometry>
        </mxCell>
        <mxCell id="J9jAl2TMxWxcubqev3nk-186" value="" style="endArrow=classic;html=1;exitX=0.5;exitY=1;exitDx=0;exitDy=0;fillColor=#0050ef;strokeColor=#001DBC;strokeWidth=2;" parent="1" edge="1">
          <mxGeometry width="50" height="50" relative="1" as="geometry">
            <mxPoint x="570" y="190" as="sourcePoint" />
            <mxPoint x="80" y="540" as="targetPoint" />
            <Array as="points">
              <mxPoint x="570" y="250" />
              <mxPoint x="40" y="250" />
              <mxPoint x="40" y="540" />
            </Array>
          </mxGeometry>
        </mxCell>
        <mxCell id="J9jAl2TMxWxcubqev3nk-187" value="" style="endArrow=classic;html=1;exitX=0.5;exitY=1;exitDx=0;exitDy=0;entryX=0;entryY=0.5;entryDx=0;entryDy=0;strokeWidth=2;" parent="1" source="E3-DCWuAJKOkuyqkyLfo-10" target="J9jAl2TMxWxcubqev3nk-174" edge="1">
          <mxGeometry width="50" height="50" relative="1" as="geometry">
            <mxPoint x="530" y="215" as="sourcePoint" />
            <mxPoint x="40" y="565" as="targetPoint" />
            <Array as="points">
              <mxPoint x="630" y="260" />
              <mxPoint x="30" y="260" />
              <mxPoint x="30" y="610" />
            </Array>
          </mxGeometry>
        </mxCell>
        <mxCell id="J9jAl2TMxWxcubqev3nk-189" value="" style="endArrow=classic;html=1;entryX=0.5;entryY=0;entryDx=0;entryDy=0;fillColor=#60a917;strokeColor=#2D7600;strokeWidth=2;" parent="1" edge="1">
          <mxGeometry width="50" height="50" relative="1" as="geometry">
            <mxPoint x="410" y="400" as="sourcePoint" />
            <mxPoint x="104" y="449" as="targetPoint" />
            <Array as="points">
              <mxPoint x="410" y="429" />
              <mxPoint x="104" y="429" />
            </Array>
          </mxGeometry>
        </mxCell>
        <mxCell id="J9jAl2TMxWxcubqev3nk-190" value="" style="endArrow=classic;html=1;entryX=0.5;entryY=0;entryDx=0;entryDy=0;strokeWidth=2;fillColor=#0050ef;strokeColor=#001DBC;" parent="1" edge="1">
          <mxGeometry width="50" height="50" relative="1" as="geometry">
            <mxPoint x="410" y="480" as="sourcePoint" />
            <mxPoint x="104" y="529" as="targetPoint" />
            <Array as="points">
              <mxPoint x="410" y="509" />
              <mxPoint x="104" y="509" />
            </Array>
          </mxGeometry>
        </mxCell>
        <mxCell id="J9jAl2TMxWxcubqev3nk-191" value="" style="endArrow=classic;html=1;entryX=0.5;entryY=0;entryDx=0;entryDy=0;strokeWidth=2;" parent="1" edge="1">
          <mxGeometry width="50" height="50" relative="1" as="geometry">
            <mxPoint x="410" y="550" as="sourcePoint" />
            <mxPoint x="104" y="590" as="targetPoint" />
            <Array as="points">
              <mxPoint x="410" y="570" />
              <mxPoint x="104" y="570" />
            </Array>
          </mxGeometry>
        </mxCell>
        <mxCell id="J9jAl2TMxWxcubqev3nk-192" value="pte3.ppn * PAGESIZE+ VPN[1]*PTESIZE" style="text;html=1;strokeColor=none;fillColor=none;align=center;verticalAlign=middle;whiteSpace=wrap;rounded=0;" parent="1" vertex="1">
          <mxGeometry x="84" y="550" width="286" height="20" as="geometry" />
        </mxCell>
        <mxCell id="J9jAl2TMxWxcubqev3nk-193" value="pte4.ppn * PAGESIZE+ VPN[0]*PTESIZE" style="text;html=1;strokeColor=none;fillColor=none;align=center;verticalAlign=middle;whiteSpace=wrap;rounded=0;" parent="1" vertex="1">
          <mxGeometry x="84" y="620" width="286" height="20" as="geometry" />
        </mxCell>
        <mxCell id="J9jAl2TMxWxcubqev3nk-195" value="9" style="text;html=1;strokeColor=none;fillColor=none;align=center;verticalAlign=middle;whiteSpace=wrap;rounded=0;" parent="1" vertex="1">
          <mxGeometry x="359" y="678.5" width="40" height="20" as="geometry" />
        </mxCell>
        <mxCell id="jdU3__QJr5vrVaPnYEDW-1" value="" style="endArrow=classic;html=1;strokeWidth=1;entryX=0.75;entryY=0;entryDx=0;entryDy=0;" edge="1" parent="1">
          <mxGeometry width="50" height="50" relative="1" as="geometry">
            <mxPoint x="441" y="620" as="sourcePoint" />
            <mxPoint x="441" y="660" as="targetPoint" />
          </mxGeometry>
        </mxCell>
        <mxCell id="jdU3__QJr5vrVaPnYEDW-2" value="" style="endArrow=none;dashed=1;html=1;strokeWidth=1;" edge="1" parent="1">
          <mxGeometry width="50" height="50" relative="1" as="geometry">
            <mxPoint x="52" y="642" as="sourcePoint" />
            <mxPoint x="792" y="642" as="targetPoint" />
          </mxGeometry>
        </mxCell>
        <mxCell id="jdU3__QJr5vrVaPnYEDW-3" value="" style="endArrow=none;dashed=1;html=1;strokeWidth=1;" edge="1" parent="1">
          <mxGeometry width="50" height="50" relative="1" as="geometry">
            <mxPoint x="50" y="502" as="sourcePoint" />
            <mxPoint x="790" y="502" as="targetPoint" />
          </mxGeometry>
        </mxCell>
        <mxCell id="jdU3__QJr5vrVaPnYEDW-4" value="" style="endArrow=none;dashed=1;html=1;strokeWidth=1;" edge="1" parent="1">
          <mxGeometry width="50" height="50" relative="1" as="geometry">
            <mxPoint x="51" y="641" as="sourcePoint" />
            <mxPoint x="51" y="504" as="targetPoint" />
          </mxGeometry>
        </mxCell>
        <mxCell id="jdU3__QJr5vrVaPnYEDW-5" value="" style="endArrow=none;dashed=1;html=1;strokeWidth=1;" edge="1" parent="1">
          <mxGeometry width="50" height="50" relative="1" as="geometry">
            <mxPoint x="791" y="637" as="sourcePoint" />
            <mxPoint x="791" y="500" as="targetPoint" />
          </mxGeometry>
        </mxCell>
        <mxCell id="jdU3__QJr5vrVaPnYEDW-6" value="pte5.ppn * PAGESIZE+ page offset" style="text;html=1;strokeColor=none;fillColor=none;align=center;verticalAlign=middle;whiteSpace=wrap;rounded=0;" vertex="1" parent="1">
          <mxGeometry x="574" y="670" width="286" height="20" as="geometry" />
        </mxCell>
      </root>
    </mxGraphModel>
  </diagram>
</mxfile>
